<svg xmlns="http://www.w3.org/2000/svg" xmlns:xlink="http://www.w3.org/1999/xlink" aria-hidden="true" role="img" class="iconify iconify--logos" width="35.93" height="32" preserveAspectRatio="xMidYMid meet" viewBox="0 0 256 228"><path fill="#00D8FF" d="M210.483 73.824a171.49 171.49 0 0 0-8.24-2.597c.465-1.9.893-3.777 1.273-5.621c6.238-30.281 2.16-54.676-11.769-62.708c-13.355-7.7-35.196.329-57.254 19.526a171.23 171.23 0 0 0-6.375 5.848a155.866 155.866 0 0 0-4.241-3.917C100.759 3.829 77.587-4.822 63.673 3.233C50.33 10.957 46.379 33.89 51.986 62.588a170.974 170.974 0 0 0 1.892 8.48c-3.28.932-6.445 1.924-9.474 2.98C17.309 83.498 0 98.307 0 113.668c0 15.865 18.582 31.778 46.812 41.427a145.52 145.52 0 0 0 6.921 2.165a167.467 167.467 0 0 0-2.01 9.138c-5.354 28.2-1.173 50.591 12.134 58.266c13.744 7.926 36.812-.22 59.273-19.855a145.567 145.567 0 0 0 5.342-4.923a168.064 168.064 0 0 0 6.92 6.314c21.758 18.722 43.246 26.282 56.54 18.586c13.731-7.949 18.194-32.003 12.4-61.268a145.016 145.016 0 0 0-1.535-6.842c1.62-.48 3.21-.974 4.76-1.488c29.348-9.723 48.443-25.443 48.443-41.52c0-15.417-17.868-30.326-45.517-39.844Zm-6.365 70.984c-1.4.463-2.836.91-4.3 1.345c-3.24-10.257-7.612-21.163-12.963-32.432c5.106-11 9.31-21.767 12.459-31.957a145.95 145.95 0 0 1 7.055 2.218c16.249 5.598 37.164 16.302 37.164 30.166c0 14.457-22.058 25.972-39.415 30.66ZM115.078 261.395c-7.673 7.168-23.064 16.093-39.116 6.83c-15.484-8.944-16.532-37.986-11.226-62.32a155.594 155.594 0 0 1 1.862-8.445c10.468 2.378 21.812 4.023 33.787 4.86c7.166 10.478 14.76 20.064 22.584 28.516a138.342 138.342 0 0 1-7.891 30.559Zm-24.917-84.091a217.166 217.166 0 0 1-11.497-19.946a214.77 214.77 0 0 1 11.36-20.14c7.86-.663 15.974-1.016 24.167-1.016c8.227 0 16.39.36 24.309 1.036a210.64 210.64 0 0 1 11.554 20.14a209.847 209.847 0 0 1-11.421 20.01c-7.9.687-16.091 1.061-24.442 1.061c-8.316 0-16.42-.368-24.03-1.025v-.12Zm65.67 3.39l12.685 1.016c-3.47 17.69-14.404 35.595-31.36 50.225l-.045-.04c7.9-8.593 15.467-18.214 22.595-28.654l-3.875-22.547Zm27.06-26.957c3.042 7.13 5.701 14.188 7.966 21.106c-7.12 2.143-14.656 3.946-22.495 5.377l11.11-17.13l3.419-9.353Zm-8.286-37.799c3.377 5.744 6.614 11.653 9.677 17.7c-2.988 5.934-6.14 11.76-9.439 17.45a301.31 301.31 0 0 0-8.378-35.162l8.14.012ZM128 30.947c8.892 9.7 17.342 20.382 25.142 31.856c-8.283-.36-16.737-.553-25.268-.553c-8.475 0-16.833.183-25.02.534C110.846 51.56 119.296 40.87 128 30.947Zm-58.37 104.81l-12.694-1.015c3.36-17.196 14.17-34.816 31.127-49.497c-7.83 8.5-15.36 18.078-22.483 28.52l4.05 21.992Zm-22.247-5.379c-7.175-2.121-13.93-4.615-20.074-7.416C13.483 117.316 8.165 108.048 8.165 113.668c0-6.152 7.806-17.86 38.14-28.124c2.62-.883 5.394-1.73 8.182-2.536c3.328 10.298 7.87 21.293 13.402 32.569c-5.27 10.91-9.648 21.648-12.853 31.796c-2.13-.559-4.2-1.142-6.213-1.784l-.01.01v-.021Zm19.578 80.36c-8.543-4.932-13.307-22.358-10.476-44.555a160.795 160.795 0 0 1 1.503-9.563c10.51 2.384 21.887 4.044 33.912 4.91c7.26 10.478 14.78 20.03 22.527 28.41c-19.21 17.43-36.876 25.473-47.466 20.798Zm141.226-20.81c3.088 23.417-1.628 41.73-10.668 46.95c-9.52 5.5-27.585-1.09-46.772-18.658l-5.29-5.002c7.63-8.49 15.074-17.98 22.149-28.335c12.206-.924 23.734-2.63 34.324-5.11a147.41 147.41 0 0 1-1.386 5.834l7.643 4.321Zm-15.268-23.748a280.538 280.538 0 0 1-22.627-5.333c2.757-5.506 5.395-11.14 7.892-16.884c2.62 5.876 5.068 11.652 7.326 17.228l7.409 4.989Zm-36.913 7.543c-11.316.96-23.198 1.475-35.316 1.475c-12.2 0-24.115-.519-35.413-1.486a297.498 297.498 0 0 1-20.28-30.41c-6.53-11.19-12.248-22.37-17.095-33.244c4.839-10.91 10.505-22.044 16.958-33.118a293.29 293.29 0 0 1 20.595-30.64c11.15-.96 22.985-1.483 35.235-1.483c12.2 0 24.003.513 35.135 1.47a290.737 290.737 0 0 1 20.692 30.677a286.68 286.68 0 0 1 16.957 33.116c-4.81 10.879-10.462 21.96-16.945 33.014a292.08 292.08 0 0 1-20.523 30.629Zm33.414-116.6c9.58-5.544 28.28 1.413 47.612 19.193a141.92 141.92 0 0 1 5.034 4.76c-7.604 8.482-15.033 17.988-22.15 28.384c-12.182.921-23.696 2.62-34.269 5.097a144.625 144.625 0 0 1 1.382-5.814c2.413-11.434-1.394-39.26-10.6-44.626l12.99-6.994Zm1.42-33.153c16.056 9.27 14.348 38.39 8.982 62.8a155.55 155.55 0 0 1-1.803 8.03c-10.477-2.388-21.838-4.038-33.842-4.883c-7.224-10.52-14.82-20.06-22.6-28.46c19.137-17.15 35.79-27.057 49.263-37.487Z"></path><circle cx="128" cy="113.634" r="23.856" fill="#00D8FF"></circle></svg>
